# xmcd
#
# Track frame offsets: 
#        150
#        20362
#        48562
#
# Disc length: 985 seconds
#
# Revision: 1
# Processed by: cddbd v1.5.1PL0 Copyright (c) Steve Scherf et al.
# Submitted via: ExactAudioCopy v0.95a4
#
DISCID=1d03d703
DTITLE=Brian McKnight - One Last Cry
DYEAR=1993
DGENRE=R&B
TTITLE0=One Last Cry (Single Edit)
TTITLE1=Goodbye My Love (A Real Goodbye Mix)
TTITLE2=Never Felt This Way
EXTD=
EXTT0=
EXTT1=
EXTT2=
PLAYORDER=
